<?xml version="1.0" encoding="UTF-8"?><svg xmlns="http://www.w3.org/2000/svg" xmlns:xlink="http://www.w3.org/1999/xlink" fill-opacity="1" color-rendering="auto" color-interpolation="auto" text-rendering="auto" stroke="black" stroke-linecap="square" width="629" stroke-miterlimit="10" shape-rendering="auto" stroke-opacity="1" fill="black" stroke-dasharray="none" font-weight="normal" stroke-width="1" height="418" font-family="'Dialog'" font-style="normal" stroke-linejoin="miter" font-size="12px" stroke-dashoffset="0" image-rendering="auto">
  <!--Generated by ySVG 2.5-->
  <defs id="genericDefs"/>
  <g>
    <defs id="defs1">
      <linearGradient x1="527.4761" gradientUnits="userSpaceOnUse" x2="616.9673" y1="232" y2="272" id="linearGradient1" spreadMethod="reflect">
        <stop stop-opacity="1" stop-color="rgb(232,238,247)" offset="0%"/>
        <stop stop-opacity="1" stop-color="rgb(183,201,227)" offset="100%"/>
      </linearGradient>
      <linearGradient x1="527.4761" gradientUnits="userSpaceOnUse" x2="616.9673" y1="313.1296" y2="353.1296" id="linearGradient2" spreadMethod="reflect">
        <stop stop-opacity="1" stop-color="rgb(232,238,247)" offset="0%"/>
        <stop stop-opacity="1" stop-color="rgb(183,201,227)" offset="100%"/>
      </linearGradient>
      <linearGradient x1="532.2217" gradientUnits="userSpaceOnUse" x2="612.2217" y1="438.6944" y2="478.6944" id="linearGradient3" spreadMethod="reflect">
        <stop stop-opacity="1" stop-color="rgb(232,238,247)" offset="0%"/>
        <stop stop-opacity="1" stop-color="rgb(183,201,227)" offset="100%"/>
      </linearGradient>
      <clipPath clipPathUnits="userSpaceOnUse" id="clipPath1">
        <path d="M0 0 L629 0 L629 418 L0 418 L0 0 Z"/>
      </clipPath>
      <clipPath clipPathUnits="userSpaceOnUse" id="clipPath2">
        <path d="M363 76 L992 76 L992 494 L363 494 L363 76 Z"/>
      </clipPath>
    </defs>
    <g fill="rgb(245,245,245)" text-rendering="geometricPrecision" shape-rendering="geometricPrecision" transform="matrix(1,0,0,1,-363,-76)" stroke="rgb(245,245,245)">
      <rect x="512.4762" y="194.6235" clip-path="url(#clipPath2)" width="119.4912" rx="4" ry="4" height="209.0709" stroke="none"/>
    </g>
    <g fill="rgb(235,235,235)" text-rendering="geometricPrecision" shape-rendering="geometricPrecision" transform="matrix(1,0,0,1,-363,-76)" stroke="rgb(235,235,235)">
      <rect x="512.4762" width="119.4912" height="22.3765" y="194.6235" clip-path="url(#clipPath2)" stroke="none"/>
    </g>
    <g font-size="15px" stroke-linecap="butt" transform="matrix(1,0,0,1,-363,-76)" text-rendering="geometricPrecision" font-family="sans-serif" shape-rendering="geometricPrecision" stroke-miterlimit="1.45">
      <text x="524.2847" xml:space="preserve" y="211.7041" clip-path="url(#clipPath2)" stroke="none">TranslatorA2B</text>
      <rect x="512.4762" y="194.6235" clip-path="url(#clipPath2)" fill="none" width="119.4912" stroke-dasharray="6,2" rx="4" ry="4" height="209.0709"/>
    </g>
    <g fill="url(#linearGradient1)" text-rendering="geometricPrecision" shape-rendering="geometricPrecision" transform="matrix(1,0,0,1,-363,-76)" stroke="url(#linearGradient1)">
      <path d="M527.4761 232 L616.9673 232 L616.9673 272 L527.4761 272 Z" stroke="none" clip-path="url(#clipPath2)"/>
    </g>
    <g text-rendering="geometricPrecision" stroke-miterlimit="1.45" shape-rendering="geometricPrecision" transform="matrix(1,0,0,1,-363,-76)" stroke-linecap="butt">
      <path fill="none" d="M527.4761 232 L616.9673 232 L616.9673 272 L527.4761 272 Z" clip-path="url(#clipPath2)"/>
      <text x="538.5391" xml:space="preserve" y="256.7139" clip-path="url(#clipPath2)" font-family="sans-serif" stroke="none">translate(a1)</text>
    </g>
    <g fill="url(#linearGradient2)" text-rendering="geometricPrecision" shape-rendering="geometricPrecision" transform="matrix(1,0,0,1,-363,-76)" stroke="url(#linearGradient2)">
      <path d="M527.4761 313.1296 L616.9673 313.1296 L616.9673 353.1296 L527.4761 353.1296 Z" stroke="none" clip-path="url(#clipPath2)"/>
    </g>
    <g text-rendering="geometricPrecision" stroke-miterlimit="1.45" shape-rendering="geometricPrecision" transform="matrix(1,0,0,1,-363,-76)" stroke-linecap="butt">
      <path fill="none" d="M527.4761 313.1296 L616.9673 313.1296 L616.9673 353.1296 L527.4761 353.1296 Z" clip-path="url(#clipPath2)"/>
      <text x="538.5391" xml:space="preserve" y="337.8435" clip-path="url(#clipPath2)" font-family="sans-serif" stroke="none">translate(a2)</text>
    </g>
    <g fill="url(#linearGradient3)" text-rendering="geometricPrecision" shape-rendering="geometricPrecision" transform="matrix(1,0,0,1,-363,-76)" stroke="url(#linearGradient3)">
      <rect x="532.2218" width="80" height="40" y="438.6944" clip-path="url(#clipPath2)" stroke="none"/>
    </g>
    <g text-rendering="geometricPrecision" stroke-miterlimit="1.45" shape-rendering="geometricPrecision" transform="matrix(1,0,0,1,-363,-76)" stroke-linecap="butt">
      <rect fill="none" x="532.2218" width="80" height="40" y="438.6944" clip-path="url(#clipPath2)"/>
      <path fill="none" d="M542.2217 438.6944 L542.2217 478.6944 M602.2217 438.6944 L602.2217 478.6944 M542.2217 438.6944 Z" clip-path="url(#clipPath2)"/>
      <text x="561.8887" xml:space="preserve" y="463.4083" clip-path="url(#clipPath2)" font-family="sans-serif" stroke="none">visit</text>
    </g>
    <g fill="rgb(245,245,245)" text-rendering="geometricPrecision" shape-rendering="geometricPrecision" transform="matrix(1,0,0,1,-363,-76)" stroke="rgb(245,245,245)">
      <rect x="378.2394" y="91.9659" clip-path="url(#clipPath2)" width="148.9824" rx="4" ry="4" height="82.3765" stroke="none"/>
      <rect x="378.2394" y="91.9659" clip-path="url(#clipPath2)" fill="rgb(235,235,235)" width="148.9824" height="22.3765" stroke="none"/>
    </g>
    <g font-size="15px" stroke-linecap="butt" transform="matrix(1,0,0,1,-363,-76)" text-rendering="geometricPrecision" font-family="sans-serif" shape-rendering="geometricPrecision" stroke-miterlimit="1.45">
      <text x="425.2171" xml:space="preserve" y="109.0465" clip-path="url(#clipPath2)" stroke="none">Model A</text>
      <rect x="378.2394" y="91.9659" clip-path="url(#clipPath2)" fill="none" width="148.9824" stroke-dasharray="6,2" rx="4" ry="4" height="82.3765"/>
      <rect fill="none" x="393.2394" width="59.4912" height="30" y="129.3424" clip-path="url(#clipPath2)"/>
      <text x="400.3092" xml:space="preserve" font-size="12px" y="149.0563" clip-path="url(#clipPath2)" stroke="none">class A1</text>
      <rect fill="none" x="452.7306" width="59.4912" height="30" y="129.3424" clip-path="url(#clipPath2)"/>
      <text x="459.8004" xml:space="preserve" font-size="12px" y="149.0563" clip-path="url(#clipPath2)" stroke="none">class A2</text>
    </g>
    <g fill="rgb(255,204,0)" text-rendering="geometricPrecision" shape-rendering="geometricPrecision" transform="matrix(1,0,0,1,-363,-76)" stroke="rgb(255,204,0)">
      <rect x="422.985" width="59.4912" height="30" y="237" clip-path="url(#clipPath2)" stroke="none"/>
    </g>
    <g text-rendering="geometricPrecision" stroke-miterlimit="1.45" shape-rendering="geometricPrecision" transform="matrix(1,0,0,1,-363,-76)" stroke-linecap="butt">
      <rect fill="none" x="422.985" width="59.4912" height="30" y="237" clip-path="url(#clipPath2)"/>
      <text x="446.0567" xml:space="preserve" y="256.7139" clip-path="url(#clipPath2)" font-family="sans-serif" stroke="none">a1</text>
    </g>
    <g fill="rgb(255,204,0)" text-rendering="geometricPrecision" shape-rendering="geometricPrecision" transform="matrix(1,0,0,1,-363,-76)" stroke="rgb(255,204,0)">
      <rect x="422.985" width="59.4912" height="30" y="318.1296" clip-path="url(#clipPath2)" stroke="none"/>
    </g>
    <g text-rendering="geometricPrecision" stroke-miterlimit="1.45" shape-rendering="geometricPrecision" transform="matrix(1,0,0,1,-363,-76)" stroke-linecap="butt">
      <rect fill="none" x="422.985" width="59.4912" height="30" y="318.1296" clip-path="url(#clipPath2)"/>
      <text x="446.0567" xml:space="preserve" y="337.8435" clip-path="url(#clipPath2)" font-family="sans-serif" stroke="none">a2</text>
      <path fill="none" d="M482.4762 252 L519.4804 252" clip-path="url(#clipPath2)"/>
      <path d="M527.4804 252 L515.4804 247 L518.4804 252 L515.4804 257 Z" clip-path="url(#clipPath2)" stroke="none"/>
      <path fill="none" d="M482.4762 333.1296 L519.4804 333.1296" clip-path="url(#clipPath2)"/>
      <path d="M527.4804 333.1296 L515.4804 328.1296 L518.4804 333.1296 L515.4804 338.1296 Z" clip-path="url(#clipPath2)" stroke="none"/>
    </g>
    <g fill="rgb(245,245,245)" text-rendering="geometricPrecision" shape-rendering="geometricPrecision" transform="matrix(1,0,0,1,-363,-76)" stroke="rgb(245,245,245)">
      <rect x="700.5724" y="91.9659" clip-path="url(#clipPath2)" width="267.9648" rx="4" ry="4" height="82.3765" stroke="none"/>
      <rect x="700.5724" y="91.9659" clip-path="url(#clipPath2)" fill="rgb(235,235,235)" width="267.9648" height="22.3765" stroke="none"/>
    </g>
    <g font-size="15px" stroke-linecap="butt" transform="matrix(1,0,0,1,-363,-76)" text-rendering="geometricPrecision" font-family="sans-serif" shape-rendering="geometricPrecision" stroke-miterlimit="1.45">
      <text x="807.0414" xml:space="preserve" y="109.0465" clip-path="url(#clipPath2)" stroke="none">Model B</text>
      <rect x="700.5724" y="91.9659" clip-path="url(#clipPath2)" fill="none" width="267.9648" stroke-dasharray="6,2" rx="4" ry="4" height="82.3765"/>
      <rect fill="none" x="715.5724" width="59.4912" height="30" y="129.3424" clip-path="url(#clipPath2)"/>
      <text x="721.9772" xml:space="preserve" font-size="12px" y="149.0563" clip-path="url(#clipPath2)" stroke="none">class BA</text>
      <rect fill="none" x="775.0636" width="59.4912" height="30" y="129.3424" clip-path="url(#clipPath2)"/>
      <text x="781.1374" xml:space="preserve" font-size="12px" y="149.0563" clip-path="url(#clipPath2)" stroke="none">class BU</text>
      <rect fill="none" x="834.5548" width="59.4912" height="30" y="129.3424" clip-path="url(#clipPath2)"/>
      <text x="840.2946" xml:space="preserve" font-size="12px" y="149.0563" clip-path="url(#clipPath2)" stroke="none">class BO</text>
      <rect fill="none" x="894.046" width="59.4912" height="30" y="129.3424" clip-path="url(#clipPath2)"/>
      <text x="900.4508" xml:space="preserve" font-size="12px" y="149.0563" clip-path="url(#clipPath2)" stroke="none">class BE</text>
      <path fill="none" d="M527.259 133.1542 L692.6006 133.1542" clip-path="url(#clipPath2)"/>
      <path d="M700.6006 133.1542 L688.6006 128.1542 L691.6006 133.1542 L688.6006 138.1542 Z" stroke="none" clip-path="url(#clipPath2)"/>
    </g>
    <g fill="rgb(245,245,245)" text-rendering="geometricPrecision" shape-rendering="geometricPrecision" transform="matrix(1,0,0,1,-363,-76)" stroke="rgb(245,245,245)">
      <rect x="696.866" y="194.6235" clip-path="url(#clipPath2)" width="279.4322" rx="4" ry="4" height="209.0709" stroke="none"/>
      <rect x="696.866" y="194.6235" clip-path="url(#clipPath2)" fill="rgb(235,235,235)" width="279.4322" height="22.3765" stroke="none"/>
    </g>
    <g font-size="15px" stroke-linecap="butt" transform="matrix(1,0,0,1,-363,-76)" text-rendering="geometricPrecision" font-family="sans-serif" shape-rendering="geometricPrecision" stroke-miterlimit="1.45">
      <text x="779.0577" xml:space="preserve" y="211.7041" clip-path="url(#clipPath2)" stroke="none">Translation result</text>
      <rect x="696.866" y="194.6235" clip-path="url(#clipPath2)" fill="none" width="279.4322" stroke-dasharray="6,2" rx="4" ry="4" height="209.0709"/>
    </g>
    <g fill="rgb(255,204,0)" text-rendering="geometricPrecision" shape-rendering="geometricPrecision" transform="matrix(1,0,0,1,-363,-76)" stroke="rgb(255,204,0)">
      <rect x="711.866" width="66.904" height="30" y="237" clip-path="url(#clipPath2)" stroke="none"/>
    </g>
    <g text-rendering="geometricPrecision" stroke-miterlimit="1.45" shape-rendering="geometricPrecision" transform="matrix(1,0,0,1,-363,-76)" stroke-linecap="butt">
      <rect fill="none" x="711.866" width="66.904" height="30" y="237" clip-path="url(#clipPath2)"/>
      <text x="738.6442" xml:space="preserve" y="256.7139" clip-path="url(#clipPath2)" font-family="sans-serif" stroke="none">ba</text>
    </g>
    <g fill="rgb(255,204,0)" text-rendering="geometricPrecision" shape-rendering="geometricPrecision" transform="matrix(1,0,0,1,-363,-76)" stroke="rgb(255,204,0)">
      <rect x="830.8484" width="66.904" height="30" y="277.5648" clip-path="url(#clipPath2)" stroke="none"/>
    </g>
    <g text-rendering="geometricPrecision" stroke-miterlimit="1.45" shape-rendering="geometricPrecision" transform="matrix(1,0,0,1,-363,-76)" stroke-linecap="butt">
      <rect fill="none" x="830.8484" width="66.904" height="30" y="277.5648" clip-path="url(#clipPath2)"/>
      <text x="857.6266" xml:space="preserve" y="297.2787" clip-path="url(#clipPath2)" font-family="sans-serif" stroke="none">bo</text>
    </g>
    <g fill="rgb(255,204,0)" text-rendering="geometricPrecision" shape-rendering="geometricPrecision" transform="matrix(1,0,0,1,-363,-76)" stroke="rgb(255,204,0)">
      <rect x="834.4902" width="66.904" height="30" y="280.8416" clip-path="url(#clipPath2)" stroke="none"/>
    </g>
    <g text-rendering="geometricPrecision" stroke-miterlimit="1.45" shape-rendering="geometricPrecision" transform="matrix(1,0,0,1,-363,-76)" stroke-linecap="butt">
      <rect fill="none" x="834.4902" width="66.904" height="30" y="280.8416" clip-path="url(#clipPath2)"/>
      <text x="861.2684" xml:space="preserve" y="300.5555" clip-path="url(#clipPath2)" font-family="sans-serif" stroke="none">bo</text>
    </g>
    <g fill="rgb(255,204,0)" text-rendering="geometricPrecision" shape-rendering="geometricPrecision" transform="matrix(1,0,0,1,-363,-76)" stroke="rgb(255,204,0)">
      <rect x="890.3396" width="66.904" height="30" y="318.1296" clip-path="url(#clipPath2)" stroke="none"/>
    </g>
    <g text-rendering="geometricPrecision" stroke-miterlimit="1.45" shape-rendering="geometricPrecision" transform="matrix(1,0,0,1,-363,-76)" stroke-linecap="butt">
      <rect fill="none" x="890.3396" width="66.904" height="30" y="318.1296" clip-path="url(#clipPath2)"/>
      <text x="917.1178" xml:space="preserve" y="337.8435" clip-path="url(#clipPath2)" font-family="sans-serif" stroke="none">be</text>
    </g>
    <g fill="rgb(255,204,0)" text-rendering="geometricPrecision" shape-rendering="geometricPrecision" transform="matrix(1,0,0,1,-363,-76)" stroke="rgb(255,204,0)">
      <rect x="771.3572" width="66.904" height="30" y="358.6944" clip-path="url(#clipPath2)" stroke="none"/>
    </g>
    <g text-rendering="geometricPrecision" stroke-miterlimit="1.45" shape-rendering="geometricPrecision" transform="matrix(1,0,0,1,-363,-76)" stroke-linecap="butt">
      <rect fill="none" x="771.3572" width="66.904" height="30" y="358.6944" clip-path="url(#clipPath2)"/>
      <text x="798.1354" xml:space="preserve" y="378.4083" clip-path="url(#clipPath2)" font-family="sans-serif" stroke="none">bu</text>
    </g>
    <g fill="rgb(255,204,0)" text-rendering="geometricPrecision" shape-rendering="geometricPrecision" transform="matrix(1,0,0,1,-363,-76)" stroke="rgb(255,204,0)">
      <rect x="894.3942" width="66.904" height="30" y="321.6585" clip-path="url(#clipPath2)" stroke="none"/>
    </g>
    <g text-rendering="geometricPrecision" stroke-miterlimit="1.45" shape-rendering="geometricPrecision" transform="matrix(1,0,0,1,-363,-76)" stroke-linecap="butt">
      <rect fill="none" x="894.3942" width="66.904" height="30" y="321.6585" clip-path="url(#clipPath2)"/>
      <text x="921.1724" xml:space="preserve" y="341.3724" clip-path="url(#clipPath2)" font-family="sans-serif" stroke="none">be</text>
      <path fill="none" d="M616.9749 252 L703.866 252" clip-path="url(#clipPath2)"/>
      <path d="M711.866 252 L699.866 247 L702.866 252 L699.866 257 Z" clip-path="url(#clipPath2)" stroke="none"/>
      <text x="643.736" xml:space="preserve" y="247.5994" clip-path="url(#clipPath2)" font-family="sans-serif" stroke="none">add(ba)</text>
      <path fill="none" d="M612.2418 458.6944 L745.3181 458.6944 L745.3181 275" clip-path="url(#clipPath2)"/>
      <path d="M745.3181 267 L740.3181 279 L745.3181 276 L750.3181 279 Z" clip-path="url(#clipPath2)" stroke="none"/>
      <text x="750.0928" xml:space="preserve" y="450.922" clip-path="url(#clipPath2)" font-family="sans-serif" stroke="none">1</text>
      <path fill="none" d="M572.2217 272.0051 L572.2217 292.5648 L822.8484 292.5648" clip-path="url(#clipPath2)"/>
      <path d="M830.8484 292.5648 L818.8484 287.5648 L821.8484 292.5648 L818.8484 297.5648 Z" clip-path="url(#clipPath2)" stroke="none"/>
      <text x="642.1838" xml:space="preserve" y="274.0843" clip-path="url(#clipPath2)" font-family="sans-serif" stroke="none">add(bo)</text>
      <text x="642.1838" xml:space="preserve" y="288.7855" clip-path="url(#clipPath2)" font-family="sans-serif" stroke="none">add(bo)</text>
      <path fill="none" d="M612.1901 458.6944 L864.3004 458.6944 L864.3004 315.5648" clip-path="url(#clipPath2)"/>
      <path d="M864.3004 307.5648 L859.3004 319.5648 L864.3004 316.5648 L869.3004 319.5648 Z" clip-path="url(#clipPath2)" stroke="none"/>
      <text x="869.176" xml:space="preserve" y="450.844" clip-path="url(#clipPath2)" font-family="sans-serif" stroke="none">3</text>
      <path fill="none" d="M616.9834 333.1296 L882.3397 333.1296" clip-path="url(#clipPath2)"/>
      <path d="M890.3397 333.1296 L878.3397 328.1296 L881.3397 333.1296 L878.3397 338.1296 Z" clip-path="url(#clipPath2)" stroke="none"/>
      <text x="642.2786" xml:space="preserve" y="314.3703" clip-path="url(#clipPath2)" font-family="sans-serif" stroke="none">add(be)</text>
      <text x="642.2786" xml:space="preserve" y="329.0715" clip-path="url(#clipPath2)" font-family="sans-serif" stroke="none">add(be)</text>
      <path fill="none" d="M612.2626 458.6944 L923.7916 458.6944 L923.7916 356.1296" clip-path="url(#clipPath2)"/>
      <path d="M923.7916 348.1296 L918.7916 360.1296 L923.7916 357.1296 L928.7916 360.1296 Z" clip-path="url(#clipPath2)" stroke="none"/>
      <text x="928.7268" xml:space="preserve" y="451.0166" clip-path="url(#clipPath2)" font-family="sans-serif" stroke="none">4</text>
      <path fill="none" d="M572.2217 353.1347 L572.2217 373.6944 L763.3572 373.6944" clip-path="url(#clipPath2)"/>
      <path d="M771.3572 373.6944 L759.3572 368.6944 L762.3572 373.6944 L759.3572 378.6944 Z" clip-path="url(#clipPath2)" stroke="none"/>
      <text x="643.4944" xml:space="preserve" y="367.4205" clip-path="url(#clipPath2)" font-family="sans-serif" stroke="none">add(bu)</text>
      <path fill="none" d="M612.2261 458.6944 L804.8093 458.6944 L804.8093 396.6944" clip-path="url(#clipPath2)"/>
      <path d="M804.8093 388.6944 L799.8093 400.6944 L804.8093 397.6944 L809.8093 400.6944 Z" clip-path="url(#clipPath2)" stroke="none"/>
      <text x="810.069" xml:space="preserve" y="450.6568" clip-path="url(#clipPath2)" font-family="sans-serif" stroke="none">2</text>
    </g>
  </g>
</svg>
