<?xml version="1.0" encoding="UTF-8"?><svg xmlns="http://www.w3.org/2000/svg" xmlns:xlink="http://www.w3.org/1999/xlink" fill-opacity="1" color-rendering="auto" color-interpolation="auto" text-rendering="auto" stroke="black" stroke-linecap="square" width="593" stroke-miterlimit="10" shape-rendering="auto" stroke-opacity="1" fill="black" stroke-dasharray="none" font-weight="normal" stroke-width="1" height="263" font-family="'Dialog'" font-style="normal" stroke-linejoin="miter" font-size="12px" stroke-dashoffset="0" image-rendering="auto">
  <!--Generated by ySVG 2.5-->
  <defs id="genericDefs"/>
  <g>
    <defs id="defs1">
      <linearGradient x1="572.9992" gradientUnits="userSpaceOnUse" x2="662.4904" y1="269.3765" y2="309.3765" id="linearGradient1" spreadMethod="reflect">
        <stop stop-opacity="1" stop-color="rgb(232,238,247)" offset="0%"/>
        <stop stop-opacity="1" stop-color="rgb(183,201,227)" offset="100%"/>
      </linearGradient>
      <linearGradient x1="572.9992" gradientUnits="userSpaceOnUse" x2="662.4904" y1="318.5429" y2="358.5429" id="linearGradient2" spreadMethod="reflect">
        <stop stop-opacity="1" stop-color="rgb(232,238,247)" offset="0%"/>
        <stop stop-opacity="1" stop-color="rgb(183,201,227)" offset="100%"/>
      </linearGradient>
      <linearGradient x1="917.8656" gradientUnits="userSpaceOnUse" x2="997.8656" y1="171.3792" y2="211.3792" id="linearGradient3" spreadMethod="reflect">
        <stop stop-opacity="1" stop-color="rgb(232,238,247)" offset="0%"/>
        <stop stop-opacity="1" stop-color="rgb(183,201,227)" offset="100%"/>
      </linearGradient>
      <clipPath clipPathUnits="userSpaceOnUse" id="clipPath1">
        <path d="M0 0 L593 0 L593 263 L0 263 L0 0 Z"/>
      </clipPath>
      <clipPath clipPathUnits="userSpaceOnUse" id="clipPath2">
        <path d="M420 156 L1013 156 L1013 419 L420 419 L420 156 Z"/>
      </clipPath>
    </defs>
    <g fill="rgb(245,245,245)" text-rendering="geometricPrecision" shape-rendering="geometricPrecision" transform="matrix(1,0,0,1,-420,-156)" stroke="rgb(245,245,245)">
      <rect x="435.1824" y="237" clip-path="url(#clipPath2)" width="89.4912" rx="4" ry="4" height="131.5429" stroke="none"/>
    </g>
    <g fill="rgb(235,235,235)" text-rendering="geometricPrecision" shape-rendering="geometricPrecision" transform="matrix(1,0,0,1,-420,-156)" stroke="rgb(235,235,235)">
      <rect x="435.1824" width="89.4912" height="22.3765" y="237" clip-path="url(#clipPath2)" stroke="none"/>
    </g>
    <g font-size="15px" stroke-linecap="butt" transform="matrix(1,0,0,1,-420,-156)" text-rendering="geometricPrecision" font-family="sans-serif" shape-rendering="geometricPrecision" stroke-miterlimit="1.45">
      <text x="452.4146" xml:space="preserve" y="254.0806" clip-path="url(#clipPath2)" stroke="none">Model A</text>
      <rect x="435.1824" y="237" clip-path="url(#clipPath2)" fill="none" width="89.4912" stroke-dasharray="6,2" rx="4" ry="4" height="131.5429"/>
    </g>
    <g fill="rgb(255,204,0)" text-rendering="geometricPrecision" shape-rendering="geometricPrecision" transform="matrix(1,0,0,1,-420,-156)" stroke="rgb(255,204,0)">
      <rect x="450.1824" width="59.4912" height="30" y="274.3765" clip-path="url(#clipPath2)" stroke="none"/>
    </g>
    <g text-rendering="geometricPrecision" stroke-miterlimit="1.45" shape-rendering="geometricPrecision" transform="matrix(1,0,0,1,-420,-156)" stroke-linecap="butt">
      <rect fill="none" x="450.1824" width="59.4912" height="30" y="274.3765" clip-path="url(#clipPath2)"/>
      <text x="455.2483" xml:space="preserve" y="294.0903" clip-path="url(#clipPath2)" font-family="sans-serif" stroke="none">ObjectA1</text>
    </g>
    <g fill="rgb(255,204,0)" text-rendering="geometricPrecision" shape-rendering="geometricPrecision" transform="matrix(1,0,0,1,-420,-156)" stroke="rgb(255,204,0)">
      <rect x="450.1824" width="59.4912" height="30" y="323.5429" clip-path="url(#clipPath2)" stroke="none"/>
    </g>
    <g text-rendering="geometricPrecision" stroke-miterlimit="1.45" shape-rendering="geometricPrecision" transform="matrix(1,0,0,1,-420,-156)" stroke-linecap="butt">
      <rect fill="none" x="450.1824" width="59.4912" height="30" y="323.5429" clip-path="url(#clipPath2)"/>
      <text x="455.2483" xml:space="preserve" y="343.2567" clip-path="url(#clipPath2)" font-family="sans-serif" stroke="none">ObjectA2</text>
    </g>
    <g fill="rgb(245,245,245)" text-rendering="geometricPrecision" shape-rendering="geometricPrecision" transform="matrix(1,0,0,1,-420,-156)" stroke="rgb(245,245,245)">
      <rect x="704.3968" y="199.6235" clip-path="url(#clipPath2)" width="163.808" rx="4" ry="4" height="204.0709" stroke="none"/>
      <rect x="704.3968" y="199.6235" clip-path="url(#clipPath2)" fill="rgb(235,235,235)" width="163.808" height="22.3765" stroke="none"/>
    </g>
    <g font-size="15px" stroke-linecap="butt" transform="matrix(1,0,0,1,-420,-156)" text-rendering="geometricPrecision" font-family="sans-serif" shape-rendering="geometricPrecision" stroke-miterlimit="1.45">
      <text x="758.7874" xml:space="preserve" y="216.7041" clip-path="url(#clipPath2)" stroke="none">Model B</text>
      <rect x="704.3968" y="199.6235" clip-path="url(#clipPath2)" fill="none" width="163.808" stroke-dasharray="6,2" rx="4" ry="4" height="204.0709"/>
    </g>
    <g fill="rgb(255,204,0)" text-rendering="geometricPrecision" shape-rendering="geometricPrecision" transform="matrix(1,0,0,1,-420,-156)" stroke="rgb(255,204,0)">
      <rect x="719.3968" width="66.904" height="30" y="237" clip-path="url(#clipPath2)" stroke="none"/>
    </g>
    <g text-rendering="geometricPrecision" stroke-miterlimit="1.45" shape-rendering="geometricPrecision" transform="matrix(1,0,0,1,-420,-156)" stroke-linecap="butt">
      <rect fill="none" x="719.3968" width="66.904" height="30" y="237" clip-path="url(#clipPath2)"/>
      <text x="728.1691" xml:space="preserve" y="256.7139" clip-path="url(#clipPath2)" font-family="sans-serif" stroke="none">ObjectB1</text>
    </g>
    <g fill="rgb(255,204,0)" text-rendering="geometricPrecision" shape-rendering="geometricPrecision" transform="matrix(1,0,0,1,-420,-156)" stroke="rgb(255,204,0)">
      <rect x="719.3968" width="66.904" height="30" y="277.5648" clip-path="url(#clipPath2)" stroke="none"/>
    </g>
    <g text-rendering="geometricPrecision" stroke-miterlimit="1.45" shape-rendering="geometricPrecision" transform="matrix(1,0,0,1,-420,-156)" stroke-linecap="butt">
      <rect fill="none" x="719.3968" width="66.904" height="30" y="277.5648" clip-path="url(#clipPath2)"/>
      <text x="728.1691" xml:space="preserve" y="297.2787" clip-path="url(#clipPath2)" font-family="sans-serif" stroke="none">ObjectB2</text>
    </g>
    <g fill="rgb(255,204,0)" text-rendering="geometricPrecision" shape-rendering="geometricPrecision" transform="matrix(1,0,0,1,-420,-156)" stroke="rgb(255,204,0)">
      <rect x="786.3008" width="66.904" height="30" y="277.5648" clip-path="url(#clipPath2)" stroke="none"/>
    </g>
    <g text-rendering="geometricPrecision" stroke-miterlimit="1.45" shape-rendering="geometricPrecision" transform="matrix(1,0,0,1,-420,-156)" stroke-linecap="butt">
      <rect fill="none" x="786.3008" width="66.904" height="30" y="277.5648" clip-path="url(#clipPath2)"/>
      <text x="795.0731" xml:space="preserve" y="297.2787" clip-path="url(#clipPath2)" font-family="sans-serif" stroke="none">ObjectB2</text>
    </g>
    <g fill="rgb(255,204,0)" text-rendering="geometricPrecision" shape-rendering="geometricPrecision" transform="matrix(1,0,0,1,-420,-156)" stroke="rgb(255,204,0)">
      <rect x="719.3968" width="66.904" height="30" y="318.1296" clip-path="url(#clipPath2)" stroke="none"/>
    </g>
    <g text-rendering="geometricPrecision" stroke-miterlimit="1.45" shape-rendering="geometricPrecision" transform="matrix(1,0,0,1,-420,-156)" stroke-linecap="butt">
      <rect fill="none" x="719.3968" width="66.904" height="30" y="318.1296" clip-path="url(#clipPath2)"/>
      <text x="728.1691" xml:space="preserve" y="337.8435" clip-path="url(#clipPath2)" font-family="sans-serif" stroke="none">ObjectB3</text>
    </g>
    <g fill="rgb(255,204,0)" text-rendering="geometricPrecision" shape-rendering="geometricPrecision" transform="matrix(1,0,0,1,-420,-156)" stroke="rgb(255,204,0)">
      <rect x="719.3968" width="66.904" height="30" y="358.6944" clip-path="url(#clipPath2)" stroke="none"/>
    </g>
    <g text-rendering="geometricPrecision" stroke-miterlimit="1.45" shape-rendering="geometricPrecision" transform="matrix(1,0,0,1,-420,-156)" stroke-linecap="butt">
      <rect fill="none" x="719.3968" width="66.904" height="30" y="358.6944" clip-path="url(#clipPath2)"/>
      <text x="728.1691" xml:space="preserve" y="378.4083" clip-path="url(#clipPath2)" font-family="sans-serif" stroke="none">ObjectB4</text>
    </g>
    <g fill="rgb(255,204,0)" text-rendering="geometricPrecision" shape-rendering="geometricPrecision" transform="matrix(1,0,0,1,-420,-156)" stroke="rgb(255,204,0)">
      <rect x="786.3008" width="66.904" height="30" y="358.6944" clip-path="url(#clipPath2)" stroke="none"/>
    </g>
    <g text-rendering="geometricPrecision" stroke-miterlimit="1.45" shape-rendering="geometricPrecision" transform="matrix(1,0,0,1,-420,-156)" stroke-linecap="butt">
      <rect fill="none" x="786.3008" width="66.904" height="30" y="358.6944" clip-path="url(#clipPath2)"/>
      <text x="795.0731" xml:space="preserve" y="378.4083" clip-path="url(#clipPath2)" font-family="sans-serif" stroke="none">ObjectB4</text>
    </g>
    <g fill="rgb(245,245,245)" text-rendering="geometricPrecision" shape-rendering="geometricPrecision" transform="matrix(1,0,0,1,-420,-156)" stroke="rgb(245,245,245)">
      <rect x="557.9992" y="232" clip-path="url(#clipPath2)" width="119.4912" rx="4" ry="4" height="141.5429" stroke="none"/>
      <rect x="557.9992" y="232" clip-path="url(#clipPath2)" fill="rgb(235,235,235)" width="119.4912" height="22.3765" stroke="none"/>
    </g>
    <g font-size="15px" stroke-linecap="butt" transform="matrix(1,0,0,1,-420,-156)" text-rendering="geometricPrecision" font-family="sans-serif" shape-rendering="geometricPrecision" stroke-miterlimit="1.45">
      <text x="569.8078" xml:space="preserve" y="249.0806" clip-path="url(#clipPath2)" stroke="none">TranslatorA2B</text>
      <rect x="557.9992" y="232" clip-path="url(#clipPath2)" fill="none" width="119.4912" stroke-dasharray="6,2" rx="4" ry="4" height="141.5429"/>
    </g>
    <g fill="url(#linearGradient1)" text-rendering="geometricPrecision" shape-rendering="geometricPrecision" transform="matrix(1,0,0,1,-420,-156)" stroke="url(#linearGradient1)">
      <path d="M572.9992 269.3765 L662.4904 269.3765 L662.4904 309.3765 L572.9992 309.3765 Z" stroke="none" clip-path="url(#clipPath2)"/>
    </g>
    <g text-rendering="geometricPrecision" stroke-miterlimit="1.45" shape-rendering="geometricPrecision" transform="matrix(1,0,0,1,-420,-156)" stroke-linecap="butt">
      <path fill="none" d="M572.9992 269.3765 L662.4904 269.3765 L662.4904 309.3765 L572.9992 309.3765 Z" clip-path="url(#clipPath2)"/>
      <text x="584.0622" xml:space="preserve" y="294.0903" clip-path="url(#clipPath2)" font-family="sans-serif" stroke="none">translate(a1)</text>
    </g>
    <g fill="url(#linearGradient2)" text-rendering="geometricPrecision" shape-rendering="geometricPrecision" transform="matrix(1,0,0,1,-420,-156)" stroke="url(#linearGradient2)">
      <path d="M572.9992 318.5429 L662.4904 318.5429 L662.4904 358.5429 L572.9992 358.5429 Z" stroke="none" clip-path="url(#clipPath2)"/>
    </g>
    <g text-rendering="geometricPrecision" stroke-miterlimit="1.45" shape-rendering="geometricPrecision" transform="matrix(1,0,0,1,-420,-156)" stroke-linecap="butt">
      <path fill="none" d="M572.9992 318.5429 L662.4904 318.5429 L662.4904 358.5429 L572.9992 358.5429 Z" clip-path="url(#clipPath2)"/>
      <text x="584.0622" xml:space="preserve" y="343.2567" clip-path="url(#clipPath2)" font-family="sans-serif" stroke="none">translate(a2)</text>
    </g>
    <g fill="url(#linearGradient3)" text-rendering="geometricPrecision" shape-rendering="geometricPrecision" transform="matrix(1,0,0,1,-420,-156)" stroke="url(#linearGradient3)">
      <rect x="917.8656" width="80" height="40" y="171.3792" clip-path="url(#clipPath2)" stroke="none"/>
    </g>
    <g text-rendering="geometricPrecision" stroke-miterlimit="1.45" shape-rendering="geometricPrecision" transform="matrix(1,0,0,1,-420,-156)" stroke-linecap="butt">
      <rect fill="none" x="917.8656" width="80" height="40" y="171.3792" clip-path="url(#clipPath2)"/>
      <path fill="none" d="M927.8656 171.3792 L927.8656 211.3792 M987.8656 171.3792 L987.8656 211.3792 M927.8656 171.3792 Z" clip-path="url(#clipPath2)"/>
      <text x="947.5326" xml:space="preserve" y="196.0931" clip-path="url(#clipPath2)" font-family="sans-serif" stroke="none">visit</text>
    </g>
    <g text-rendering="geometricPrecision" stroke-miterlimit="1.45" shape-rendering="geometricPrecision" transform="matrix(1,0,0,1,-420,-156)" stroke-linecap="butt">
      <path fill="none" d="M509.6736 289.3765 L565.0229 289.3765" clip-path="url(#clipPath2)"/>
      <path d="M573.0229 289.3765 L561.0229 284.3765 L564.0229 289.3765 L561.0229 294.3765 Z" clip-path="url(#clipPath2)" stroke="none"/>
      <path fill="none" d="M662.5046 276.9937 L711.6864 263.3875" clip-path="url(#clipPath2)"/>
      <path d="M719.3968 261.2545 L706.498 259.6351 L710.7226 263.6542 L709.1644 269.2731 Z" clip-path="url(#clipPath2)" stroke="none"/>
      <path fill="none" d="M662.5046 290.4328 L711.399 291.5866" clip-path="url(#clipPath2)"/>
      <path d="M719.3969 291.7754 L707.5182 286.4936 L710.3994 291.563 L707.2822 296.4908 Z" clip-path="url(#clipPath2)" stroke="none"/>
      <path fill="none" d="M509.6736 338.5429 L565.0229 338.5429" clip-path="url(#clipPath2)"/>
      <path d="M573.0229 338.5429 L561.0229 333.5429 L564.0229 338.5429 L561.0229 343.5429 Z" clip-path="url(#clipPath2)" stroke="none"/>
      <path fill="none" d="M662.5046 336.7495 L711.4032 334.7902" clip-path="url(#clipPath2)"/>
      <path d="M719.3968 334.4699 L707.2062 329.9544 L710.404 334.8303 L707.6066 339.9464 Z" clip-path="url(#clipPath2)" stroke="none"/>
      <path fill="none" d="M662.5046 350.1885 L711.6545 362.9764" clip-path="url(#clipPath2)"/>
      <path d="M719.3968 364.9908 L709.0424 357.1303 L710.6868 362.7246 L706.5245 366.8082 Z" clip-path="url(#clipPath2)" stroke="none"/>
      <path fill="none" d="M957.8656 211.3592 L957.8656 252 L794.3008 252" clip-path="url(#clipPath2)"/>
      <path d="M786.3008 252 L798.3008 257 L795.3008 252 L798.3008 247 Z" clip-path="url(#clipPath2)" stroke="none"/>
      <text x="907.7788" xml:space="preserve" y="246.8823" clip-path="url(#clipPath2)" font-family="sans-serif" stroke="none">1</text>
      <path fill="none" d="M957.8656 211.3891 L957.8656 292.5648 L861.2048 292.5648" clip-path="url(#clipPath2)"/>
      <path d="M853.2048 292.5648 L865.2048 297.5648 L862.2048 292.5648 L865.2048 287.5648 Z" clip-path="url(#clipPath2)" stroke="none"/>
      <text x="907.3668" xml:space="preserve" y="288.0176" clip-path="url(#clipPath2)" font-family="sans-serif" stroke="none">2</text>
      <path fill="none" d="M957.8656 211.3475 L957.8656 333.1296 L794.3008 333.1296" clip-path="url(#clipPath2)"/>
      <path d="M786.3008 333.1296 L798.3008 338.1296 L795.3008 333.1296 L798.3008 328.1296 Z" clip-path="url(#clipPath2)" stroke="none"/>
      <text x="907.8165" xml:space="preserve" y="323.4896" clip-path="url(#clipPath2)" font-family="sans-serif" stroke="none">3</text>
      <path fill="none" d="M957.8656 211.3644 L957.8656 373.6944 L861.2048 373.6944" clip-path="url(#clipPath2)"/>
      <path d="M853.2048 373.6944 L865.2048 378.6944 L862.2048 373.6944 L865.2048 368.6944 Z" clip-path="url(#clipPath2)" stroke="none"/>
      <text x="907.3668" xml:space="preserve" y="369.6937" clip-path="url(#clipPath2)" font-family="sans-serif" stroke="none">4</text>
    </g>
  </g>
</svg>
